<svg width="20" height="13" viewBox="0 0 20 13" fill="none" xmlns="http://www.w3.org/2000/svg">
<path d="M1 1.5V12M7 1.5V12M19 10.811V2.69C19 1.826 18.067 1.284 17.317 1.713L10.209 5.774C10.0367 5.87237 9.89347 6.01455 9.79385 6.18614C9.69423 6.35772 9.64176 6.55259 9.64176 6.751C9.64176 6.94941 9.69423 7.14428 9.79385 7.31587C9.89347 7.48745 10.0367 7.62963 10.209 7.728L17.317 11.789C17.4882 11.8868 17.682 11.9379 17.8792 11.9371C18.0763 11.9364 18.2698 11.8839 18.4402 11.7848C18.6107 11.6858 18.7521 11.5437 18.8504 11.3728C18.9486 11.2019 19.0002 11.0081 19 10.811V10.811Z" stroke="white" stroke-width="1.5" stroke-linecap="round" stroke-linejoin="round"/>
</svg>
