<svg width="20" height="13" viewBox="0 0 20 13" fill="none" xmlns="http://www.w3.org/2000/svg">
<path d="M19 1.5V12M13 1.5V12M1 10.811V2.69C1 1.826 1.933 1.284 2.683 1.713L9.791 5.774C9.96331 5.87237 10.1065 6.01455 10.2062 6.18614C10.3058 6.35772 10.3582 6.55259 10.3582 6.751C10.3582 6.94941 10.3058 7.14428 10.2062 7.31587C10.1065 7.48745 9.96331 7.62963 9.791 7.728L2.683 11.789C2.51182 11.8868 2.31796 11.9379 2.12082 11.9371C1.92369 11.9364 1.73021 11.8839 1.55976 11.7848C1.38932 11.6858 1.24789 11.5437 1.14965 11.3728C1.05141 11.2019 0.999801 11.0081 1 10.811V10.811Z" stroke="white" stroke-width="1.5" stroke-linecap="round" stroke-linejoin="round"/>
</svg>
