<svg width="12" height="13" viewBox="0 0 12 13" fill="none" xmlns="http://www.w3.org/2000/svg">
<path d="M1 10.2481V2.12706C1 1.26306 1.933 0.721063 2.683 1.15006L9.791 5.21106C9.96331 5.30943 10.1065 5.45162 10.2062 5.6232C10.3058 5.79478 10.3582 5.98966 10.3582 6.18806C10.3582 6.38647 10.3058 6.58135 10.2062 6.75293C10.1065 6.92451 9.96331 7.0667 9.791 7.16506L2.683 11.2261C2.51182 11.3238 2.31796 11.3749 2.12082 11.3742C1.92369 11.3735 1.73021 11.3209 1.55976 11.2219C1.38932 11.1228 1.24789 10.9807 1.14965 10.8098C1.05141 10.6389 0.999801 10.4452 1 10.2481Z" stroke="white" stroke-width="1.5" stroke-linecap="round" stroke-linejoin="round"/>
</svg>
